<svg
   xmlns="http://www.w3.org/2000/svg"
   viewBox="-265 388.9 64 64"
   fill="currentColor">
   <path
     d="M-217 423c-1.1.6-1.7 1.8-1.7 3.6v5.4c0 3.1-3.2 5.9-6.8 5.9h-3c-.9 0-1.3-.5-1.3-1.6v-1.7c0-1.1.4-1.6 1.3-1.6h.7c1.6 0 2.2-.4 2.2-2.1v-5.1c0-2.2 1.1-3.4 3.4-3.8-2.3-.3-3.4-1.6-3.4-3.8v-4.9c0-1.4-.7-2.1-2.2-2.1h-.7c-.9 0-1.3-.5-1.3-1.6v-1.7c0-1.1.4-1.6 1.3-1.6h3c3.6 0 6.8 2.9 6.8 6v5.4c0 1 .2 1.9.7 2.6.2.4.7.8 1.3 1.1.4.3.7.6.7.7s-.3.4-1 .9zm-31-.9c0-.1.2-.4.7-.7.6-.3 1-.7 1.3-1.1.4-.7.7-1.6.7-2.6v-5.4c0-3.1 3.2-6 6.8-6h3c.9 0 1.3.5 1.3 1.6v1.8c0 1.1-.4 1.6-1.3 1.6h-.7c-1.5 0-2.2.7-2.2 2.1v4.9c0 2.2-1.1 3.4-3.4 3.8 2.3.3 3.4 1.6 3.4 3.8v5c0 1.6.6 2.1 2.2 2.1h.7c.9 0 1.3.5 1.3 1.6v1.7c0 1.1-.4 1.6-1.3 1.6h-3c-3.6 0-6.8-2.8-6.8-5.9v-5.4c0-1.7-.5-2.9-1.7-3.6-.7-.5-1-.8-1-.9z"
   />
</svg>
