<svg xmlns="http://www.w3.org/2000/svg" viewBox="0 0 122.88 38.48" style="enable-background:new 0 0 122.88 38.48" xml:space="preserve"><path fill-rule="evenodd" clip-rule="evenodd" fill="#0077B5" d="M118.69 0H4.19C1.89 0 0 1.89 0 4.19V34.3c0 2.3 1.89 4.19 4.19 4.19h114.5c2.3 0 4.19-1.89 4.19-4.19V4.19c0-2.3-1.89-4.19-4.19-4.19z"/><path fill="#FFF" d="m51.99 21.34 3.13-.23c.07.59.21 1.04.42 1.34.34.5.82.75 1.46.75.47 0 .83-.13 1.09-.38.26-.26.38-.55.38-.89 0-.32-.12-.61-.36-.86s-.8-.49-1.68-.72c-1.45-.37-2.47-.88-3.09-1.5-.62-.62-.93-1.42-.93-2.39 0-.63.16-1.23.48-1.8.32-.57.79-1.01 1.43-1.34.64-.32 1.51-.48 2.62-.48 1.36 0 2.4.29 3.12.89.72.59 1.14 1.53 1.28 2.81l-3.1.21c-.08-.56-.26-.97-.52-1.23-.27-.26-.63-.38-1.1-.38-.38 0-.67.1-.87.28s-.29.42-.29.69c0 .2.08.37.24.53.15.16.52.31 1.1.46 1.44.36 2.47.73 3.09 1.1.62.37 1.08.82 1.36 1.37.28.54.42 1.16.42 1.83a4.4 4.4 0 0 1-.57 2.2c-.38.67-.91 1.18-1.59 1.53-.68.35-1.53.52-2.57.52-1.81 0-3.07-.41-3.77-1.22-.69-.81-1.09-1.84-1.18-3.09zm-41.06-5.62h4.23v12.69h-4.23V15.72zm7.05 0h3.9v2h.06c.54-.97 1.87-2 3.85-2 4.12 0 4.88 2.56 4.88 5.9v6.79H26.6v-6.02c0-1.44-.03-3.28-2.12-3.28-2.12 0-2.44 1.56-2.44 3.18v6.13h-4.06v-12.7zm-2.82-3.53c0 1.17-.95 2.11-2.12 2.11-1.17 0-2.12-.95-2.12-2.11s.95-2.11 2.12-2.11c1.17 0 2.12.95 2.12 2.11zm47.97.86h3.29v4.33h3.61v-4.33h3.31v12.39h-3.31v-5.02h-3.61v5.02h-3.29V13.05zM82.1 23.39h-3.74l-.54 2.04h-3.37l4.02-12.39h3.61l4 12.39h-3.45l-.53-2.04zm-.69-2.68-1.17-4.45-1.17 4.45h2.34zm5.77 4.73V13.05h5.5c1.02 0 1.8.1 2.33.31.54.2.98.58 1.3 1.13.33.55.5 1.22.5 2.01 0 .69-.13 1.28-.38 1.78s-.6.91-1.04 1.22c-.28.2-.67.36-1.16.49.39.15.68.3.86.46.12.1.3.32.53.65.23.33.38.59.46.77l1.6 3.58h-3.73l-1.76-3.78c-.23-.49-.42-.81-.6-.95-.24-.19-.51-.29-.81-.29h-.29v5.02h-3.31v-.01zm3.31-7.36h1.39c.15 0 .44-.06.88-.17.22-.05.4-.18.53-.39.14-.21.21-.45.21-.72 0-.4-.11-.71-.33-.92-.22-.21-.63-.32-1.23-.32h-1.45v2.52zm8.25-5.03h8.83v2.65h-5.52v1.97h5.11v2.53h-5.11v2.44h5.68v2.8h-8.99V13.05z"/><path fill="#006BA3" d="M40.66 0v38.48h-2.39V0h2.39z"/></svg>