<?xml version="1.0"?>
<svg xmlns:rdf="http://www.w3.org/1999/02/22-rdf-syntax-ns#" xmlns="http://www.w3.org/2000/svg" xmlns:cc="http://web.resource.org/cc/" xmlns:xlink="http://www.w3.org/1999/xlink" xmlns:dc="http://purl.org/dc/elements/1.1/" xmlns:svg="http://www.w3.org/2000/svg" id="svg1932" viewBox="0 0 591.64 425.77" version="1.0">
  <defs id="defs1935">
    <radialGradient id="radialGradient3002" gradientUnits="userSpaceOnUse" cy="329.9" cx="328.35" gradientTransform="matrix(1.71 0 0 1.0029 -66.27 46.738)" r="88.096">
      <stop id="stop2996" stop-color="#fca" offset="0"/>
      <stop id="stop2998" stop-color="#fca" stop-opacity="0" offset="1"/>
    </radialGradient>
  </defs>
  <g id="g2865" transform="translate(-93.42 -97.466)">
    <path id="path1943" d="m656.45 463.1c3.7-23.47-4.13-47.7 5.48-70.3 5.7-29.64-22.03-32.52-40.02-40.7-28.87-19.97-50.28-49.57-77.78-71.33-20.31-7.34-25.36-25.55-1.12-39.17 14.7-15.1 31.09-25.1 44.93-40.87 17.91-13.82 37.33-27.94 51.46-46.69 12.69-17.8 37.45-23.38 44.77-45.72-2.23-24.844-31.14 3.43-39.36 12.94-14.76 17.15-32.55 30.19-50.42 43.22-16.52 22.51-41.9 34.07-61.14 53.52-15.62 11.79-27.86 32.99-49.06 31.56-22.45 4.07-43.52 15.08-66.11 20.31-22.53 7.77-39.89 25.1-56.69 37.33-21.01 9.38-28.07 32.38-37.21 51.92-2.24 22.22-42.13 40.63-8.89 52.52 7.58-4.34-8.13 6-6.34 12.58-9.86 19.12-40.93 34.97-46.04 51.12 11.61-2.35 31.95-16.71 46.1-28.93 7.06-7.3 0.79-16.66 14.19-18.05 17.4-5.68-24.85 41.16 15.86 30.08 10.93-4.25 22.46-38.66 29.74-40.64 8.3 20.94 10.26 47.96 29.98 60.9 12.17 0.07 19.72-8.12 32.92 0.54 19.99-14.58-17.57-48.14 7.43-54.93 26.06-3.97 12.33 18.05 57.75 31.97 19.05 7.7 37.47 21.72 58.86 19.82 23.97-8.02 49.86-5.05 74.71-5.96 8.9-1.23 17.28-4.95 26-7.04z" fill-rule="evenodd" stroke="#000" stroke-width="1.7769px" fill="#ffcfaf"/>
    <path id="path1947" d="m415.54 474.73c2.84-2.21 2.7-6.56 2.7-11.63 0-4.33 0.54-7.4-2.02-10.17-1.92-2.07-2.91-5.4-4.71-8-2.13-3.06-1.95-6.21-2.7-9.44-0.82-3.55-1.38-6.38-0.67-9.45 0.62-2.66 3.54-5.27 4.71-6.54 0.36-0.38 0.45-0.97 0.67-1.45" stroke="#000" stroke-width="1.7769px" fill="none"/>
    <path id="path1949" d="m645.01 464.55c-19.3-0.91-39.39-3.49-58.88-1.45-19.16 4.67-40.94 0.86-56.72-11.49-15-5.7-28.86-13.61-40.11-23.05-19.56-9.71-43.87-6.28-66.93-10.75-28.73 1.52-32.91-2.23-49.18-3.75-18.2 1.54-26-20.48-27.76-41.78 15.77-11.21 34.37-14.21 52.9-12.27 18.1-2.25 36.94 1.18 54.9-0.09 17.99 3.67 41.38-1.25 37.68-26.88 3.74-15.63-0.43-26.13-1.35-42.87" fill-rule="evenodd" stroke="#000" stroke-width="1.7769px" fill="url(#radialGradient3002)"/>
    <path id="path1952" d="m317.3 410.78c0.66-3.52 3.64-5.72 6.39-7.31 2.76-1.56 5.04-3.89 7.53-5.87 2.17-1.44 4.23-3.1 5.95-5.12 1.67-1.31 3.47-2.74 4.12-4.97 0.45-1 0.91-2.02 1.58-2.88" fill-rule="evenodd" stroke="#000" stroke-width="1.7769px" fill="#6798e8"/>
    <path id="path1954" d="m372.48 360.65c5.36-4.11 10.6-7.23 15.46-12.23 2.6-3.23 5.58-4.89 8.86-7.5 1.11-1.79 3.87-3.77 5.5-1.58 1.23 1.91 0.77 4.76 2.64 6.26 2.2 1.94 5.44 2.57 6.82 5.5 1.2 2.16 0.95 5.77-1.6 6.64" fill-rule="evenodd" fill-opacity=".75" stroke="#000" stroke-width="1.7769px" fill="blue"/>
    <path id="path1956" d="m356.33 407.88c-1.98 4.5-6.54 6.36-10.36 8.55-3.8 2.4-6.45 6.41-10.2 8.9-2.29 2.26-5.31 3.62-8.43 3.56-3.1 0.19-6.39-0.49-9.32 0.92-1.81 1.32-2.41 3.72-3.42 5.68" fill-rule="evenodd" stroke="#000" stroke-width="1.7769px" fill="#c12d2d"/>
    <path id="path2000" d="m410.83 358.47l185.06-163.49" fill-rule="evenodd" fill-opacity=".75" stroke="#000" stroke-width="1.7769px" fill="lime"/>
    <path id="path2002" d="m398.72 339.58l150.74-136.61" fill-rule="evenodd" fill-opacity=".75" stroke="#000" stroke-width="1.7769px" fill="#ffb380"/>
    <path id="path2006" d="m346.91 375.91c3.85-1.87 8.18-1.46 12.29-1.4 3.58 0.64 6.58 3.03 9.98 4.24 4.5 3.69 5.44 11.17 2.52 16.28-2.11 5.09-5.57 9.68-10.18 12.34-3.31 1.32-7.3-0.8-8.58-4.29-0.48-0.8-0.91-1.63-1.32-2.47" fill-rule="evenodd" fill-opacity=".75" stroke="#000" stroke-width="1.7769px" fill="#d45500"/>
    <path id="path2067" d="m317.3 374.45c0.92-0.92 2.04 1.13 2.99 1.46 2.11 1.57 4.31 3.57 4.71 6.47 0.68 2.92 1.15 5.94 0.93 8.95-0.9 2.23-2.97 3.46-4.49 5.14-2.14 2.06-4.73 3.58-7.55 4.21-2.37 0.65-5.04 1.14-7.34-0.03-1.29-1.04-2.78-2.27-4.49-1.7-0.31 0.06-0.61 0.13-0.91 0.21" fill-rule="evenodd" fill-opacity=".75" stroke="#000" stroke-width="1.7769px" fill="#d45500"/>
    <path id="path2078" d="m265.93 474.52c0.07 1.06-0.59 1.74-1.02 2.6-0.72 1.05-1.4 2.14-2.11 3.21-0.67 1.09-0.92 2.38-1.3 3.6-0.15 1.34-0.4 2.65-0.59 3.98-0.16 1.24-0.43 2.45-0.65 3.67-0.37 1.46-1.16 2.73-1.84 4.03-0.72 1.32-1.77 2.34-2.77 3.4-0.84 0.81-1.64 1.66-2.46 2.49-0.96 0.85-1.94 1.67-2.93 2.48-1.08 1.1-2.26 2.07-3.43 3.06-3.31 3.5-6.47 4.75-11.12 7.62-0.88 0.56-1.84 0.95-2.78 1.38-1.18 0.4-2.38 0.73-3.57 1.06-1.3 0.64-2.64 1.17-3.97 1.73-1.44 0.88-3.02 0.91-4.62 1.09-2.85 0.07-5.7 0.04-8.55 0.03-2.4 0.06-4.69-0.48-6.99-1.09-1.4-0.51-2.72-1.22-4.06-1.86-2.48-1.22-5.03-2.22-7.48-3.49-2.51-1.82-4.24-4.32-5.86-7.01-1.16-2.13-2.8-3.81-4.4-5.53-1.06-1.09-2.34-1.89-3.55-2.77-1.93-1.17-4.04-1.9-6.09-2.77-3.21-1.18-6.51-1.99-9.84-2.65-2.35-0.6-4.74-0.86-7.13-1.05-2.64-0.12-5.28-0.12-7.91-0.13-4.51-0.07-8.95 0.92-13.38 1.71-2.97 0.5-5.83 1.36-8.67 2.37 0.91 1.05 11.08-8.17 3.53-1.33-2.41 2.25-4.61 4.7-6.65 7.33-1.02 1.25-1.66 2.75-2.36 4.22-0.49 1.35-1.34 2.45-2.14 3.59-0.88 1.07-2.01 1.84-3.07 2.68-4.38 3.22-8.62 5.61-13.41 7.52-1.51 0.49-2.997 1.1-4.479 1.66-1.171 0.53-2.369 0.96-3.551 1.45-0.038 0.08-1.258 0.42-1.31 0.44l7.85-6.56c0.42-0.16 0.86-0.3 1.27-0.49 1.18-0.48 2.38-0.94 3.55-1.46 1.48-0.52 2.97-1.02 4.43-1.61 3.71-1.64 11.67-5.78-3.58 2.95 1.03-0.83 2.12-1.58 3.15-2.4 0.81-1.08 1.73-2.03 2.27-3.32 0.69-1.57 1.33-3.18 2.36-4.53 2.06-2.67 4.28-5.15 6.66-7.5 3.9-3.88 8.15-7.1 13.25-9.2 2.8-0.79 5.61-1.51 8.48-1.95 4.52-0.78 9.06-1.76 13.66-1.73 2.67 0 5.35-0.04 8.02 0.12 2.4 0.25 4.78 0.6 7.13 1.19 3.34 0.79 6.65 1.69 9.89 2.84 2.19 0.83 4.45 1.53 6.42 2.87 1.26 0.88 2.55 1.71 3.58 2.91 1.65 1.79 3.21 3.66 4.46 5.82 1.52 2.56 3.1 4.98 5.61 6.55 2.47 1.24 5 2.31 7.54 3.38 1.33 0.59 2.65 1.21 4 1.74 2.19 0.52 4.37 1 6.64 0.95 2.88-0.01 5.76 0.03 8.64-0.23 1.54-0.31 3.07-0.51 4.45-1.4 1.36-0.52 2.71-1.08 4.07-1.61 1.19-0.37 2.4-0.65 3.55-1.18 0.91-0.46 1.83-0.93 2.73-1.43-14.17 8.92-8.66 6.21-5.87 3.07 1.15-1 2.33-1.95 3.46-2.98 0.93-0.86 1.79-1.82 2.87-2.49 0.82-0.84 1.69-1.64 2.5-2.51 0.98-1.01 2.07-1.92 2.88-3.1 0.65-1.24 1.4-2.43 1.95-3.72 0.25-1.22 0.6-2.39 0.66-3.65 0.24-1.34 0.57-2.62 0.61-3.99 0.36-1.32 0.57-2.68 1.14-3.93 0.66-1.1 1.24-2.25 2.11-3.19 0.41-0.63 0.87-1.38 1.15-2.01l8.97-4.94z"/>
    <path id="path2080" d="m345.56 375.18c0.9 0 0.9 0 0 0z" fill-rule="evenodd" fill-opacity=".75" stroke="#000" stroke-width="1.7769px" fill="#f60"/>
    <path id="path2084" d="m343.54 384.63c-0.46-0.08 1.58-2.56 2.69-4.36" stroke="#000" stroke-width="1.7769px" fill="none"/>
    <rect id="rect2091" transform="matrix(.60850 .79355 -.75007 .66136 0 0)" height="285.18" width="23.804" y="-398.04" x="518.12" fill="#2d1a0d"/>
    <rect id="rect2194" ry="33.583" rx=".75294" transform="matrix(.75596 -.65462 .57993 .81466 0 0)" height="22.729" width="89.445" y="521.39" x="-33.776" fill="#0e3f96"/>
  </g>
  <metadata>
    <rdf:RDF>
      <cc:Work>
        <dc:format>image/svg+xml</dc:format>
        <dc:type rdf:resource="http://purl.org/dc/dcmitype/StillImage"/>
        <cc:license rdf:resource="http://creativecommons.org/licenses/publicdomain/"/>
        <dc:publisher>
          <cc:Agent rdf:about="http://openclipart.org/">
            <dc:title>Openclipart</dc:title>
          </cc:Agent>
        </dc:publisher>
        <dc:title>Write</dc:title>
        <dc:date>2006-12-25T17:26:26</dc:date>
        <dc:description>activity, body part, clip art, clipart, colour, contour, hand, image, media, outline, paper, pen, people, png, public domain, school, svg, write, writing, </dc:description>
        <dc:source>http://openclipart.org/detail/2263/write-by-machovka</dc:source>
        <dc:creator>
          <cc:Agent>
            <dc:title>Machovka</dc:title>
          </cc:Agent>
        </dc:creator>
        <dc:subject>
          <rdf:Bag>
            <rdf:li>activity</rdf:li>
            <rdf:li>body part</rdf:li>
            <rdf:li>clip art</rdf:li>
            <rdf:li>clipart</rdf:li>
            <rdf:li>colour</rdf:li>
            <rdf:li>contour</rdf:li>
            <rdf:li>hand</rdf:li>
            <rdf:li>image</rdf:li>
            <rdf:li>media</rdf:li>
            <rdf:li>outline</rdf:li>
            <rdf:li>paper</rdf:li>
            <rdf:li>pen</rdf:li>
            <rdf:li>people</rdf:li>
            <rdf:li>png</rdf:li>
            <rdf:li>public domain</rdf:li>
            <rdf:li>school</rdf:li>
            <rdf:li>svg</rdf:li>
            <rdf:li>write</rdf:li>
            <rdf:li>writing</rdf:li>
          </rdf:Bag>
        </dc:subject>
      </cc:Work>
      <cc:License rdf:about="http://creativecommons.org/licenses/publicdomain/">
        <cc:permits rdf:resource="http://creativecommons.org/ns#Reproduction"/>
        <cc:permits rdf:resource="http://creativecommons.org/ns#Distribution"/>
        <cc:permits rdf:resource="http://creativecommons.org/ns#DerivativeWorks"/>
      </cc:License>
    </rdf:RDF>
  </metadata>
</svg>
