<svg xmlns="http://www.w3.org/2000/svg" xmlns:xlink="http://www.w3.org/1999/xlink" version="1.2" viewBox="0 0 207.7 207.8" baseProfile="tiny-ps"><title>Iterable</title><rect x="0.5" y="0.3" width="207.2" height="207.2" fill="#FFFFFF"/><rect x="91.417" y="113.613" transform="matrix(0.7071 -0.7071 0.7071 0.7071 -56.5611 138.6759)" width="95.399" height="48" fill="#D1EFE6"/><rect x="114.615" y="21.932" transform="matrix(0.7071 -0.7071 0.7071 0.7071 -8.6377 118.4105)" width="48" height="95.399" fill="#CCF0FD"/><rect x="46.095" y="89.926" transform="matrix(0.7071 -0.7071 0.7071 0.7071 -76.7858 89.8745)" width="48" height="95.399" fill="#FFE2E0"/><rect x="24.102" y="44.003" transform="matrix(0.7071 -0.7071 0.7071 0.7071 -27.0547 70.6887)" width="95.399" height="48" fill="#E6D9E5"/><rect x="93.185" y="142.887" transform="matrix(0.7071 -0.7071 0.7071 0.7071 -78.4856 119.1922)" width="22.9" height="22.9" fill="#DFD7CD"/><rect x="92.414" y="40.415" transform="matrix(0.7071 -0.7071 0.7071 0.7071 -5.9988 89.6471)" width="25.6" height="23.3" fill="#BECBE0"/><rect x="143.653" y="91.873" transform="matrix(0.7071 -0.7071 0.7071 0.7071 -27.6117 140.3845)" width="24" height="23.3" fill="#A9E3EA"/><rect x="43.617" y="90.958" transform="matrix(0.7071 -0.7071 0.7071 0.7071 -56.802 68.4842)" width="21.3" height="23.7" fill="#E7C0CC"/><circle cx="104.5" cy="35.4" r="24.2" fill="#6A266D"/><circle cx="172.8" cy="104" r="24.2" fill="#36C3F2"/><circle cx="104.5" cy="172.3" r="24.2" fill="#59C1A7"/><circle cx="36.2" cy="103.7" r="24.2" fill="#EF3D55"/></svg>
