<svg id="Layer_1" data-name="Layer 1"
  xmlns="http://www.w3.org/2000/svg" viewBox="0 0 246.64 300">
  <g id="logo-elastic-vertical-color">
    <path fill="#FFF" d="M231,112.36a42.38,42.38,0,0,0-28-40,60,60,0,0,0,1.12-11.57A60.81,60.81,0,0,0,94,25.23,32.3,32.3,0,0,0,43.91,62a42.92,42.92,0,0,0-28.25,40.11,42.41,42.41,0,0,0,28.16,40.08,61.58,61.58,0,0,0-1.11,11.57,60.64,60.64,0,0,0,110,35.35,32.24,32.24,0,0,0,50.06-36.65A42.93,42.93,0,0,0,231,112.36"/>
    <path fill="#fec514" d="M100.31,92.37l47.11,21.47L195,72.2a52.53,52.53,0,0,0,1-10.45,53.13,53.13,0,0,0-97-30l-7.9,41Z"/>
    <path fill="#00bfb3" d="M51.55,142.26a53.9,53.9,0,0,0-1,10.6,53.25,53.25,0,0,0,97.31,29.95l7.85-40.88-10.47-20L97.9,100.36Z"/>
    <path fill="#f04e98" d="M51.25,60.73l32.28,7.62,7.08-36.71A25.52,25.52,0,0,0,51.25,60.73"/>
    <path fill="#1ba9f5" d="M48.45,68.42A35.6,35.6,0,0,0,46.9,135.5L92.2,94.56,83.88,76.79Z"/>
    <path fill="#93c90e" d="M156.11,182.81a25.36,25.36,0,0,0,40.82-20.18,25.58,25.58,0,0,0-1.54-8.85l-32.26-7.55Z"/>
    <path fill="#07c" d="M162.67,137.77l35.51,8.31a35.93,35.93,0,0,0,24.46-33.82,35.55,35.55,0,0,0-22.95-33.21l-46.45,40.7Z"/>
    <path fill="#1c1e23" d="M35,292.94l2.8-.29.19,5.71a138.85,138.85,0,0,1-18.85,1.54q-10.45,0-14.8-6T0,275.05q0-25.42,20.21-25.43,9.76,0,14.6,5.46t4.84,17.17l-.39,5.51H7.35q0,8,2.9,11.89t10.11,3.87Q27.56,293.52,35,292.94ZM32.4,272q0-8.9-2.86-12.57t-9.28-3.68q-6.44,0-9.67,3.87T7.25,272Z"/>
    <path fill="#1c1e23" d="M49.76,299.53V235.88H57v63.65Z"/>
    <path fill="#1c1e23" d="M102.69,265.19v24.39c0,2.41,6,2.32,6,2.32l-.37,6.41c-5.1,0-9.31.42-11.85-2a42.14,42.14,0,0,1-17.4,3.62q-6.68,0-10.15-3.77T65.46,285.3q0-7.05,3.58-10.39t11.21-4.11l15.18-1.45v-4.16q0-4.94-2.12-7.06a7.85,7.85,0,0,0-5.8-2.13l-19.06,0v-6.4H87q8.22,0,11.94,3.77T102.69,265.19ZM72.9,284.91q0,8.91,7.35,8.9a39.15,39.15,0,0,0,13-2.22l2.22-.78V274.86l-14.31,1.35q-4.35.39-6.28,2.52C73.55,280.14,72.9,282.21,72.9,284.91Z"/>
    <path fill="#1c1e23" d="M131,256.1q-10.53,0-10.54,7.35a5.07,5.07,0,0,0,2.42,4.78q2.41,1.41,11,2.9t12.18,4.21q3.57,2.71,3.58,10.15t-4.79,10.93q-4.78,3.48-14,3.48c-4,0-17.34-1.48-17.34-1.48l.39-6.28c7.66.74,13.21,1.28,17,1.28s6.59-.59,8.56-1.78,2.95-3.2,2.95-6-.84-4.71-2.52-5.71-5.35-1.95-11-2.85-9.71-2.22-12.09-4-3.58-5-3.58-9.67,1.66-8.19,5-10.45a21.66,21.66,0,0,1,12.43-3.38c3.93,0,17.57,1,17.57,1v6.32C141,256.61,135.12,256.1,131,256.1Z"/>
    <path fill="#1c1e23" d="M184.64,256.87H169.26V280q0,8.32,1.21,10.93c.81,1.74,2.72,2.61,5.75,2.61l8.61-.58.48,6a67.21,67.21,0,0,1-9.86,1.06q-7.55,0-10.44-3.67t-2.9-14V256.87h-6.87v-6.28h6.87v-14.8h7.15v14.8h15.38Z"/>
    <path fill="#1c1e23" d="M194.72,244.41V236H202v8.41Zm0,55.12V250.59H202v48.94Z"/>
    <path fill="#1c1e23" d="M233.39,249.62a84.26,84.26,0,0,1,10.83,1.16l2.32.29-.29,5.9a113.52,113.52,0,0,0-11.41-.87q-8.22,0-11.17,3.91t-2.95,14.51q0,10.59,2.76,14.75t11.45,4.15l11.42-.87.29,6a99.8,99.8,0,0,1-13.45,1.35q-11.31,0-15.61-5.8t-4.31-19.58q0-13.78,4.65-19.34T233.39,249.62Z"/>
  </g>
</svg>
