<svg xmlns="http://www.w3.org/2000/svg" xmlns:xlink="http://www.w3.org/1999/xlink" viewBox="0 0 65 65" fill="#fff" fill-rule="evenodd" stroke="#000" stroke-linecap="round" stroke-linejoin="round"><use xlink:href="#E" x=".5" y=".5"/><defs><linearGradient id="A" x1="50.00%" x2="50.00%" y1="100.00%" y2="0.00%"><stop stop-color="#574c4a" offset="0%"/><stop stop-color="#80716d" offset="100%"/></linearGradient><linearGradient id="B" x1="88.69%" x2="30.12%" y1="98.39%" y2="-8.68%"><stop stop-color="#268d83" offset="0%"/><stop stop-color="#2ea19e" offset="100%"/></linearGradient><radialGradient id="C" cx="41%" cy="43%" r="50%" fx="41%" fy="43%"><stop stop-color="#db7c7c" offset="0%"/><stop stop-color="#c83737" offset="100%"/></radialGradient><radialGradient id="D" cx="44%" cy="43%" r="50%" fx="44%" fy="43%"><stop stop-color="#db7c7c" offset="0%"/><stop stop-color="#c83737" offset="100%"/></radialGradient></defs><symbol id="E" overflow="visible"><g stroke="none" fill-rule="nonzero"><path d="M0 43.244V20.757C0 2.594 2.592 0 20.735 0h22.53c18.143 0 20.734 2.594 20.734 20.757v22.487C63.999 61.406 61.407 64 43.264 64H20.735C2.592 64 0 61.406 0 43.244z" fill="url(#A)"/><path d="M13.817 12.068c-3.145 19.938-1.5 38.603-1.5 38.603h9.833c-.935-4.977-4.292-27.717-1.5-27.792 1.496.238 8.333 19.291 8.333 19.291s1.506-.187 3.021-.187 3.021.188 3.021.188 6.838-19.054 8.334-19.291c2.794.075-.563 22.814-1.498 27.792h9.833s1.646-18.667-1.501-38.604H41.09c-1.733.02-8.326 11.584-9.084 11.584s-7.351-11.562-9.084-11.582z" fill="url(#B)"/><path d="M30.065 48.346c0 1.285-1.042 2.326-2.327 2.326s-2.326-1.042-2.326-2.326a2.33 2.33 0 0 1 2.326-2.328 2.33 2.33 0 0 1 2.327 2.328z" fill="url(#C)"/><path d="M38.599 48.346c0 1.285-1.042 2.326-2.326 2.326s-2.326-1.042-2.326-2.326a2.33 2.33 0 0 1 2.327-2.328c1.286 0 2.326 1.042 2.326 2.328z" fill="url(#D)"/><path d="M49.729 12.727c1.419 9.605 1.751 18.824 1.726 25.691-.027 7.024-.429 11.587-.429 11.587h-8.279l-.889.666h9.834s1.646-18.666-1.5-38.604zm-26.057-.243c2.584 2.874 7.053 10.5 7.666 10.5-1.638-2.095-5.661-8.778-7.666-10.5zm-3.686 9.729c-2.792.075.564 22.814 1.5 27.792h-8.584l-.583.666h9.833c-.931-4.952-4.258-27.489-1.542-27.792-.253-.38-.471-.642-.625-.667zm22.709 0c-1.496.238-8.333 19.292-8.333 19.292s-1.506-.187-3.02-.187a23.84 23.84 0 0 0-2.19.104l-.163.75s1.506-.187 3.02-.187 3.021.188 3.021.188 6.785-18.929 8.313-19.292c-.165-.417-.368-.659-.646-.667z" fill="#000" opacity=".1"/><path d="M13.818 12.068c-3.147 19.938-1.501 38.603-1.501 38.603l.579-.651c-.296-4.404-1.088-20.33 1.588-37.287h9.104c.193.002.45.16.75.416-.596-.663-1.092-1.079-1.417-1.083zm27.271 0c-1.733.021-8.326 11.583-9.083 11.583.309.395.56.668.667.668.758 0 7.35-11.563 9.084-11.584h8.034l.403-.666zM21.277 23.547c2.212 3.321 7.709 18.625 7.709 18.625l.161-.746c-1.357-3.721-6.528-17.672-7.828-17.879-.014 0-.028-.002-.042 0zm22.75 0c1.483 3.783-1.325 22.647-2.167 27.124l.893-.696c1.139-6.68 3.88-26.358 1.275-26.428z" opacity=".3"/></g></symbol></svg>