<svg xmlns="http://www.w3.org/2000/svg" xmlns:xlink="http://www.w3.org/1999/xlink" viewBox="0 0 106 42" fill="#fff" fill-rule="evenodd" stroke="#000" stroke-linecap="round" stroke-linejoin="round"><use xlink:href="#A" x=".5" y=".5"/><symbol id="A" overflow="visible"><g stroke="none" fill-rule="nonzero"><path d="M42.8 35.972c0 .924-.462 1.386-1.386 1.386H40v-10.57c.136-3.315 1.875-4.918 5.217-4.918 3.45 0 5.2 1.848 5.2 5.57 0 3.75-1.467 5.707-4.457 5.815-1.386 0-2.446-.57-3.152-1.712zm2.4-5.217c1.522 0 2.283-1.06 2.364-3.207 0-2.228-.788-3.342-2.4-3.342s-2.364 1.114-2.337 3.342c.082 2.147.842 3.207 2.364 3.207zm10.682-6.44c-1.658 0-2.4 1.386-2.4 3.07v5.652H50.71v-14.2h1.413c.924 0 1.386.5 1.386 1.413v3.315c1.44-1.63 3.18-2.092 5.272-1.36 1.55.57 2.283 2.038 2.2 4.457v6.413h-2.77v-5.68c0-1.875-.734-3.07-2.337-3.07zm8.388.543h-2.8c.326-2.038 1.793-3.043 4.348-3.043 3.07 0 4.647 1.005 4.7 3.043v3.75c0 3.043-1.848 4.402-4.864 4.62-2.663.217-4.538-1.033-4.538-3.478.054-2.663 2-3.37 4.837-3.64 1.196-.136 1.82-.5 1.82-1.114-.054-.625-.652-.95-1.82-.95-.978.054-1.522.3-1.685.815zm3.533 3.64v-1.033c-.652.272-1.413.5-2.228.68-1.114.217-1.685.734-1.685 1.55.054.87.516 1.304 1.413 1.304 1.55 0 2.5-.924 2.5-2.5zm6.275-8.314v12.853h-2.8v-14.2h1.44c.734 0 1.36.625 1.36 1.36zm5.652 13.108c-3.37 0-5.1-1.93-5.2-5.734 0-3.777 1.712-5.68 5.136-5.734 2.7 0 4.293 1.196 4.783 3.587h-3.043c-.326-.76-.924-1.14-1.82-1.14-1.467 0-2.2 1.114-2.2 3.315s.788 3.315 2.337 3.288c.652 0 1.223-.272 1.685-.788.272-.272.598-.408.95-.408h2.12c-.516 2.228-2.174 3.696-4.755 3.614zm15.218-5.716c0 3.804-1.712 5.734-5.082 5.734s-5.054-1.93-5.054-5.734c0-3.86 1.685-5.734 5.054-5.734 3.397-.027 5.082 1.875 5.082 5.734zm-7.283 0c.027 2.147.76 3.234 2.2 3.234s2.147-1.14 2.174-3.315c0-2.147-.707-3.207-2.147-3.207-1.495-.027-2.228 1.087-2.228 3.288zm15.68 5.462c-.924-.054-1.386-.5-1.386-1.386v-5.68c-.054-1.14-.707-1.712-1.93-1.712-1.25 0-1.875.57-1.902 1.712v7.065h-2.853v-6.495c0-3.152 1.603-4.728 4.783-4.728s4.728 1.576 4.728 4.728v6.495z" fill="#393839"/><path d="M15.05 23.692l-1.858.884 3.84-.305.73-.58-.213-.366z" fill="#acd2b4"/><path d="M21.53 34.062l1.828.853v.548l-1.25-.518-.152.274 1.158.58.487 1.188-1.158-.975h-.244l.244 2.986-1.462-1.706-.122-1.737z" fill="#3a3a3a"/><path d="M19.102 33.817l2.102 2.04v1.4l-1.89.792-1.158-2.072v-6.063l.487-.944.183.152z" fill="#8fc19a"/><path d="M23.825 28.912l1.828.853v.58l-1.22-.548-.152.274 1.097.548.518 1.25-1.097-1.005h-.244l.213 2.955-1.584-1.828-.06-1.37z" fill="#3a3a3a"/><path d="M22.27 30.07l1.097.73v1.127l-3.047 1.158-1.066-2.254-.244-1.462.7-.457 2.072-.122z" fill="#678a6f"/><path d="M15.416 28.332l3.9-2.62-3.016-.792-5.728 5.697v3.717l1.432 4.905v-2.6zm13.527-3.32c-.06 0-3.686.914-3.686.914l-3.597 2.986h-1.95l5.94-3.9z" fill="#3a3a3a"/><path d="M33.787 22.484l1.462 2.346-1.737.914-6.46-2.65-.152-1.797 3.595.244z" fill="#79a281"/><path d="M33.756 24.312l-.58.427-.06-.09.64-.487.914.518-.06.122z" fill="#3a3a3a"/><path d="M19.56 18.675l6.916 1.737v3.99l-2.65-1.005-5.18-2.65z" fill="#8fc19a"/><path d="M28.18 19.376l-3.108-3.077.09-2.864z" fill="#7aa383"/><path d="M27.054 20.534l-1.858-7.982L10.54 0l2.163 5.97 8.53 8.226z" fill="#cce2d2"/><path d="M10.328 6.122l5.332 6.093 5.575 1.98L9.84 3.168z" fill="#acd2b4"/><path d="M2.925 12.734l5.94 1.615 4.815 4.743-5.118-1.523-1.34-.914z" fill="#393839"/><path d="M18.615 21.966l-.122 1.005-5.697-.518-4.51-2.437z" fill="#acd2b4"/><path d="M16.97 24.068l-2.285-.213-3.504-1.127 7.525.274 7.342.61.853 1.584-1.828-.335-3.99-.366-2.894-1.097z" fill="#678a6f"/><path d="M5.515 16.604l12.49 3.808 5.82 2.986-5.332-.427-6.794-2.04z" fill="#cce1d1"/><path d="M4.265 12.369l5.027 3.87 4.388 2.853 4.966 1.645.914-2.072L.792 7.432z" fill="#78a381"/><path d="M0 3.168l5.453 7.464 14.106 8.043 7.495 1.858-5.82-6.337z" fill="#393839"/><path d="M26.475 24.372v-3.96l.58.122v.122l3.443.884-2.986.427 2.376 1.005-2.376.06 3.747 1.493 2.254 1.22.122.518-3.565-1.25h-3.168z" fill="#cce1d1"/><path d="M35.25 26.872l-.914.792h-.944l.427-.73-.305-1.188 1.737-.914z" fill="#3a3a3a"/><path d="M15.05 34.242l.67.853-.152.213.487 4.875-3.108-5.9 2.65-6.276 5.484-3.504 4.57.487v.03l-7.495 4.905-.64-.944z" fill="#cde3d2"/><path d="M21.083 24.494l-10.51 6.58-2.285 2.71.792-2.955 2.376-3.26 6.733-4.174z" fill="#8fc19a"/><path d="M18.158 29.917v7.403l.944 2.346-4.052-5.423 2.468-5.27z" fill="#78a381"/><path d="M7.83 29.186v1.036l1.95-2.62z" fill="#3a3a3a"/><path d="M9.84 35.919l.335 2.04-.73-.457v-2.53z" fill="#678a6f"/></g></symbol></svg>