<?xml version="1.0" ?><!DOCTYPE svg  PUBLIC '-//W3C//DTD SVG 1.1//EN'  'http://www.w3.org/Graphics/SVG/1.1/DTD/svg11.dtd'><svg id="Lager_1" style="enable-background:new -265 388.9 64 64;" version="1.1" viewBox="-265 388.9 64 64" xml:space="preserve" xmlns="http://www.w3.org/2000/svg" xmlns:xlink="http://www.w3.org/1999/xlink"><g><g><path d="M-217,423c-1.1,0.6-1.7,1.8-1.7,3.6v5.4c0,3.1-3.2,5.9-6.8,5.9h-3c-0.9,0-1.3-0.5-1.3-1.6v-1.7c0-1.1,0.4-1.6,1.3-1.6h0.7    c1.6,0,2.2-0.4,2.2-2.1v-5.1c0-2.2,1.1-3.4,3.4-3.8c-2.3-0.3-3.4-1.6-3.4-3.8v-4.9c0-1.4-0.7-2.1-2.2-2.1h-0.7    c-0.9,0-1.3-0.5-1.3-1.6v-1.7c0-1.1,0.4-1.6,1.3-1.6h3c3.6,0,6.8,2.9,6.8,6v5.4c0,1,0.2,1.9,0.7,2.6c0.2,0.4,0.7,0.8,1.3,1.1    c0.4,0.3,0.7,0.6,0.7,0.7S-216.3,422.5-217,423z"/></g><g><path d="M-248,422.1c0-0.1,0.2-0.4,0.7-0.7c0.6-0.3,1-0.7,1.3-1.1c0.4-0.7,0.7-1.6,0.7-2.6v-5.4c0-3.1,3.2-6,6.8-6h3    c0.9,0,1.3,0.5,1.3,1.6v1.8c0,1.1-0.4,1.6-1.3,1.6h-0.7c-1.5,0-2.2,0.7-2.2,2.1v4.9c0,2.2-1.1,3.4-3.4,3.8    c2.3,0.3,3.4,1.6,3.4,3.8v5c0,1.6,0.6,2.1,2.2,2.1h0.7c0.9,0,1.3,0.5,1.3,1.6v1.7c0,1.1-0.4,1.6-1.3,1.6h-3    c-3.6,0-6.8-2.8-6.8-5.9v-5.4c0-1.7-0.5-2.9-1.7-3.6C-247.7,422.5-248,422.2-248,422.1z"/></g></g></svg>